<svg width="142" height="31" viewBox="0 0 142 31" fill="none" xmlns="http://www.w3.org/2000/svg">
<path d="M4.51562 10.9219V24.3281H0V7.42188H4.23438L4.51562 10.9219ZM3.89062 15.2812H2.64062C2.64062 14.1042 2.78125 13.0208 3.0625 12.0312C3.35417 11.0312 3.77604 10.1667 4.32812 9.4375C4.89062 8.69792 5.58333 8.125 6.40625 7.71875C7.22917 7.3125 8.18229 7.10938 9.26562 7.10938C10.0156 7.10938 10.7031 7.22396 11.3281 7.45312C11.9531 7.67188 12.4896 8.02083 12.9375 8.5C13.3958 8.96875 13.75 9.58333 14 10.3438C14.25 11.0938 14.375 11.9948 14.375 13.0469V24.3281H9.875V13.5469C9.875 12.776 9.77083 12.1823 9.5625 11.7656C9.35417 11.349 9.05729 11.0573 8.67188 10.8906C8.29688 10.724 7.84375 10.6406 7.3125 10.6406C6.72917 10.6406 6.21875 10.7604 5.78125 11C5.35417 11.2396 5 11.5729 4.71875 12C4.4375 12.4167 4.22917 12.9062 4.09375 13.4688C3.95833 14.0312 3.89062 14.6354 3.89062 15.2812ZM13.9531 14.7656L12.3438 14.9688C12.3438 13.8646 12.4792 12.8385 12.75 11.8906C13.0312 10.9427 13.4427 10.1094 13.9844 9.39062C14.5365 8.67188 15.2188 8.11458 16.0312 7.71875C16.8438 7.3125 17.7812 7.10938 18.8438 7.10938C19.6562 7.10938 20.3958 7.22917 21.0625 7.46875C21.7292 7.69792 22.2969 8.06771 22.7656 8.57812C23.2448 9.07812 23.6094 9.73438 23.8594 10.5469C24.1198 11.3594 24.25 12.3542 24.25 13.5312V24.3281H19.7344V13.5312C19.7344 12.75 19.6302 12.1562 19.4219 11.75C19.224 11.3333 18.9323 11.0469 18.5469 10.8906C18.1719 10.724 17.724 10.6406 17.2031 10.6406C16.6615 10.6406 16.1875 10.75 15.7812 10.9688C15.375 11.1771 15.0365 11.4688 14.7656 11.8438C14.4948 12.2188 14.2917 12.6562 14.1562 13.1562C14.0208 13.6458 13.9531 14.1823 13.9531 14.7656ZM36.8594 20.5156V12.9844C36.8594 12.4427 36.7708 11.9792 36.5938 11.5938C36.4167 11.1979 36.1406 10.8906 35.7656 10.6719C35.401 10.4531 34.9271 10.3438 34.3438 10.3438C33.8438 10.3438 33.4115 10.4323 33.0469 10.6094C32.6823 10.776 32.401 11.0208 32.2031 11.3438C32.0052 11.6562 31.9062 12.026 31.9062 12.4531H27.4062C27.4062 11.7344 27.5729 11.0521 27.9062 10.4062C28.2396 9.76042 28.724 9.19271 29.3594 8.70312C29.9948 8.20312 30.75 7.8125 31.625 7.53125C32.5104 7.25 33.5 7.10938 34.5938 7.10938C35.9062 7.10938 37.0729 7.32812 38.0938 7.76562C39.1146 8.20312 39.9167 8.85938 40.5 9.73438C41.0938 10.6094 41.3906 11.7031 41.3906 13.0156V20.25C41.3906 21.1771 41.4479 21.9375 41.5625 22.5312C41.6771 23.1146 41.8438 23.625 42.0625 24.0625V24.3281H37.5156C37.2969 23.8698 37.1302 23.2969 37.0156 22.6094C36.9115 21.9115 36.8594 21.2135 36.8594 20.5156ZM37.4531 14.0312L37.4844 16.5781H34.9688C34.375 16.5781 33.8594 16.6458 33.4219 16.7812C32.9844 16.9167 32.625 17.1094 32.3438 17.3594C32.0625 17.599 31.8542 17.8802 31.7188 18.2031C31.5938 18.526 31.5312 18.8802 31.5312 19.2656C31.5312 19.651 31.6198 20 31.7969 20.3125C31.974 20.6146 32.2292 20.8542 32.5625 21.0312C32.8958 21.1979 33.2865 21.2812 33.7344 21.2812C34.4115 21.2812 35 21.1458 35.5 20.875C36 20.6042 36.3854 20.2708 36.6562 19.875C36.9375 19.4792 37.0833 19.1042 37.0938 18.75L38.2812 20.6562C38.1146 21.0833 37.8854 21.526 37.5938 21.9844C37.3125 22.4427 36.9531 22.875 36.5156 23.2812C36.0781 23.6771 35.5521 24.0052 34.9375 24.2656C34.3229 24.5156 33.5938 24.6406 32.75 24.6406C31.6771 24.6406 30.7031 24.4271 29.8281 24C28.9635 23.5625 28.276 22.9635 27.7656 22.2031C27.2656 21.4323 27.0156 20.5573 27.0156 19.5781C27.0156 18.6927 27.1823 17.9062 27.5156 17.2188C27.849 16.5312 28.3385 15.9531 28.9844 15.4844C29.6406 15.0052 30.4583 14.6458 31.4375 14.4062C32.4167 14.1562 33.5521 14.0312 34.8438 14.0312H37.4531ZM55.5625 7.42188H59.6406V23.7656C59.6406 25.3073 59.2969 26.6146 58.6094 27.6875C57.9323 28.7708 56.9844 29.5885 55.7656 30.1406C54.5469 30.7031 53.1302 30.9844 51.5156 30.9844C50.8073 30.9844 50.0573 30.8906 49.2656 30.7031C48.4844 30.5156 47.7344 30.224 47.0156 29.8281C46.3073 29.4323 45.7135 28.9323 45.2344 28.3281L47.2188 25.6719C47.7396 26.276 48.3438 26.7448 49.0312 27.0781C49.7188 27.4219 50.4792 27.5938 51.3125 27.5938C52.125 27.5938 52.8125 27.4427 53.375 27.1406C53.9375 26.849 54.3698 26.4167 54.6719 25.8438C54.974 25.2812 55.125 24.599 55.125 23.7969V11.3281L55.5625 7.42188ZM44.1875 16.0781V15.75C44.1875 14.4583 44.3438 13.2865 44.6562 12.2344C44.9792 11.1719 45.4323 10.2604 46.0156 9.5C46.6094 8.73958 47.3281 8.15104 48.1719 7.73438C49.0156 7.31771 49.9688 7.10938 51.0312 7.10938C52.1562 7.10938 53.099 7.31771 53.8594 7.73438C54.6198 8.15104 55.2448 8.74479 55.7344 9.51562C56.224 10.276 56.6042 11.1771 56.875 12.2188C57.1562 13.25 57.375 14.3802 57.5312 15.6094V16.3281C57.375 17.5052 57.1406 18.599 56.8281 19.6094C56.5156 20.6198 56.1042 21.5052 55.5938 22.2656C55.0833 23.0156 54.4479 23.599 53.6875 24.0156C52.9375 24.4323 52.0417 24.6406 51 24.6406C49.9583 24.6406 49.0156 24.4271 48.1719 24C47.3385 23.5729 46.625 22.974 46.0312 22.2031C45.4375 21.4323 44.9792 20.526 44.6562 19.4844C44.3438 18.4427 44.1875 17.3073 44.1875 16.0781ZM48.6875 15.75V16.0781C48.6875 16.776 48.7552 17.4271 48.8906 18.0312C49.026 18.6354 49.2344 19.1719 49.5156 19.6406C49.8073 20.099 50.1667 20.4583 50.5938 20.7188C51.0312 20.9688 51.5469 21.0938 52.1406 21.0938C52.9635 21.0938 53.6354 20.9219 54.1562 20.5781C54.6771 20.224 55.0677 19.7396 55.3281 19.125C55.5885 18.5104 55.7396 17.8021 55.7812 17V14.9531C55.7604 14.2969 55.6719 13.7083 55.5156 13.1875C55.3594 12.6562 55.1406 12.2031 54.8594 11.8281C54.5781 11.4531 54.2135 11.1615 53.7656 10.9531C53.3177 10.7448 52.7865 10.6406 52.1719 10.6406C51.5781 10.6406 51.0625 10.776 50.625 11.0469C50.1979 11.3073 49.8385 11.6667 49.5469 12.125C49.2656 12.5833 49.0521 13.125 48.9062 13.75C48.7604 14.3646 48.6875 15.0312 48.6875 15.75ZM67.5469 11.0312V24.3281H63.0469V7.42188H67.2656L67.5469 11.0312ZM66.8906 15.2812H65.6719C65.6719 14.0312 65.8333 12.9062 66.1562 11.9062C66.4792 10.8958 66.9323 10.0365 67.5156 9.32812C68.099 8.60938 68.7917 8.0625 69.5938 7.6875C70.4062 7.30208 71.3125 7.10938 72.3125 7.10938C73.1042 7.10938 73.8281 7.22396 74.4844 7.45312C75.1406 7.68229 75.7031 8.04688 76.1719 8.54688C76.651 9.04688 77.0156 9.70833 77.2656 10.5312C77.526 11.3542 77.6562 12.3594 77.6562 13.5469V24.3281H73.125V13.5312C73.125 12.7812 73.0208 12.1979 72.8125 11.7812C72.6042 11.3646 72.2969 11.0729 71.8906 10.9062C71.4948 10.7292 71.0052 10.6406 70.4219 10.6406C69.8177 10.6406 69.2917 10.7604 68.8438 11C68.4062 11.2396 68.0417 11.5729 67.75 12C67.4688 12.4167 67.2552 12.9062 67.1094 13.4688C66.9635 14.0312 66.8906 14.6354 66.8906 15.2812ZM85.8281 7.42188V24.3281H81.3125V7.42188H85.8281ZM81.0312 3.01562C81.0312 2.35938 81.2604 1.81771 81.7188 1.39062C82.1771 0.963542 82.7917 0.75 83.5625 0.75C84.3229 0.75 84.9323 0.963542 85.3906 1.39062C85.8594 1.81771 86.0938 2.35938 86.0938 3.01562C86.0938 3.67188 85.8594 4.21354 85.3906 4.64062C84.9323 5.06771 84.3229 5.28125 83.5625 5.28125C82.7917 5.28125 82.1771 5.06771 81.7188 4.64062C81.2604 4.21354 81.0312 3.67188 81.0312 3.01562ZM95.1719 24.3281H90.6562V6.65625C90.6562 5.21875 90.9479 4.00521 91.5312 3.01562C92.125 2.02604 92.9688 1.27604 94.0625 0.765625C95.1667 0.255208 96.5 0 98.0625 0C98.9479 0 99.8073 0.0885417 100.641 0.265625C101.474 0.432292 102.333 0.651042 103.219 0.921875L102.562 4.53125C101.99 4.35417 101.375 4.1875 100.719 4.03125C100.062 3.875 99.2708 3.79688 98.3438 3.79688C97.3021 3.79688 96.5104 4.04167 95.9688 4.53125C95.4375 5.01042 95.1719 5.71875 95.1719 6.65625V24.3281ZM98.5312 7.42188V10.6094H88.1406V7.42188H98.5312ZM105.312 7.42188V24.3281H100.797V7.42188H105.312ZM116.062 21.125C116.615 21.125 117.104 21.0208 117.531 20.8125C117.958 20.5938 118.292 20.2917 118.531 19.9062C118.781 19.5104 118.911 19.0469 118.922 18.5156H123.156C123.146 19.7031 122.828 20.7604 122.203 21.6875C121.578 22.6042 120.74 23.3281 119.688 23.8594C118.635 24.3802 117.458 24.6406 116.156 24.6406C114.844 24.6406 113.698 24.4219 112.719 23.9844C111.75 23.5469 110.943 22.9427 110.297 22.1719C109.651 21.3906 109.167 20.4844 108.844 19.4531C108.521 18.4115 108.359 17.2969 108.359 16.1094V15.6562C108.359 14.4583 108.521 13.3438 108.844 12.3125C109.167 11.2708 109.651 10.3646 110.297 9.59375C110.943 8.8125 111.75 8.20312 112.719 7.76562C113.688 7.32812 114.823 7.10938 116.125 7.10938C117.51 7.10938 118.724 7.375 119.766 7.90625C120.818 8.4375 121.641 9.19792 122.234 10.1875C122.839 11.1667 123.146 12.3281 123.156 13.6719H118.922C118.911 13.1094 118.792 12.599 118.562 12.1406C118.344 11.6823 118.021 11.3177 117.594 11.0469C117.177 10.7656 116.661 10.625 116.047 10.625C115.391 10.625 114.854 10.7656 114.438 11.0469C114.021 11.3177 113.698 11.6927 113.469 12.1719C113.24 12.6406 113.078 13.1771 112.984 13.7812C112.901 14.375 112.859 15 112.859 15.6562V16.1094C112.859 16.7656 112.901 17.3958 112.984 18C113.068 18.6042 113.224 19.1406 113.453 19.6094C113.693 20.0781 114.021 20.4479 114.438 20.7188C114.854 20.9896 115.396 21.125 116.062 21.125ZM125.047 16.0469V15.7188C125.047 14.4792 125.224 13.3385 125.578 12.2969C125.932 11.2448 126.448 10.3333 127.125 9.5625C127.802 8.79167 128.635 8.19271 129.625 7.76562C130.615 7.32812 131.75 7.10938 133.031 7.10938C134.312 7.10938 135.453 7.32812 136.453 7.76562C137.453 8.19271 138.292 8.79167 138.969 9.5625C139.656 10.3333 140.177 11.2448 140.531 12.2969C140.885 13.3385 141.062 14.4792 141.062 15.7188V16.0469C141.062 17.276 140.885 18.4167 140.531 19.4688C140.177 20.5104 139.656 21.4219 138.969 22.2031C138.292 22.974 137.458 23.5729 136.469 24C135.479 24.4271 134.344 24.6406 133.062 24.6406C131.781 24.6406 130.641 24.4271 129.641 24C128.651 23.5729 127.812 22.974 127.125 22.2031C126.448 21.4219 125.932 20.5104 125.578 19.4688C125.224 18.4167 125.047 17.276 125.047 16.0469ZM129.547 15.7188V16.0469C129.547 16.7552 129.609 17.4167 129.734 18.0312C129.859 18.6458 130.057 19.1875 130.328 19.6562C130.609 20.1146 130.974 20.474 131.422 20.7344C131.87 20.9948 132.417 21.125 133.062 21.125C133.688 21.125 134.224 20.9948 134.672 20.7344C135.12 20.474 135.479 20.1146 135.75 19.6562C136.021 19.1875 136.219 18.6458 136.344 18.0312C136.479 17.4167 136.547 16.7552 136.547 16.0469V15.7188C136.547 15.0312 136.479 14.3854 136.344 13.7812C136.219 13.1667 136.016 12.625 135.734 12.1562C135.464 11.6771 135.104 11.3021 134.656 11.0312C134.208 10.7604 133.667 10.625 133.031 10.625C132.396 10.625 131.854 10.7604 131.406 11.0312C130.969 11.3021 130.609 11.6771 130.328 12.1562C130.057 12.625 129.859 13.1667 129.734 13.7812C129.609 14.3854 129.547 15.0312 129.547 15.7188Z" fill="#0F172A"/>
</svg>
